<svg width="13" height="12" viewBox="0 0 13 12" fill="none" xmlns="http://www.w3.org/2000/svg">
<path fill-rule="evenodd" clip-rule="evenodd" d="M0.464298 11.5569C0.661209 11.7539 0.980465 11.7539 1.17738 11.5569L5.86307 6.87126L10.8441 11.8523C11.041 12.0492 11.3603 12.0492 11.5572 11.8523C11.7541 11.6554 11.7541 11.3361 11.5572 11.1392L6.57615 6.15818L11.8736 0.860762C12.0705 0.663851 12.0705 0.344595 11.8736 0.147683C11.6767 -0.0492278 11.3574 -0.0492278 11.1605 0.147683L5.86307 5.4451L0.861007 0.443036C0.664095 0.246124 0.344839 0.246125 0.147928 0.443036C-0.0489837 0.639947 -0.0489837 0.959204 0.147928 1.15611L5.14999 6.15818L0.464298 10.8439C0.267386 11.0408 0.267386 11.36 0.464298 11.5569Z" fill="#BA4F4F"/>
</svg>
