<svg width="19" height="19" viewBox="0 0 19 19" fill="none" xmlns="http://www.w3.org/2000/svg">
<path fill-rule="evenodd" clip-rule="evenodd" d="M12.9358 12.1667L12.6325 11.8742C13.6942 10.6392 14.3333 9.03583 14.3333 7.29167C14.3333 3.4025 11.1808 0.25 7.29167 0.25C3.4025 0.25 0.25 3.4025 0.25 7.29167C0.25 11.1808 3.4025 14.3333 7.29167 14.3333C9.03583 14.3333 10.6392 13.6942 11.8742 12.6325L12.1667 12.9358V13.7917L16.8762 18.4918C17.2669 18.8817 17.8995 18.8813 18.2897 18.4911L18.4911 18.2897C18.8813 17.8995 18.8817 17.2669 18.4918 16.8762L13.7917 12.1667H12.9358ZM2.41667 7.29167C2.41667 4.59417 4.59417 2.41667 7.29167 2.41667C9.98917 2.41667 12.1667 4.59417 12.1667 7.29167C12.1667 9.98917 9.98917 12.1667 7.29167 12.1667C4.59417 12.1667 2.41667 9.98917 2.41667 7.29167Z" fill="#F2F5F7"/>
<path fill-rule="evenodd" clip-rule="evenodd" d="M7.83334 4.58331H6.75001V6.74998H4.58334V7.83331H6.75001V9.99998H7.83334V7.83331H10V6.74998H7.83334V4.58331Z" fill="#F2F5F7"/>
</svg>
